<svg id="Layer_2" data-name="Layer 2" xmlns="http://www.w3.org/2000/svg" width="30" height="30" viewBox="0 0 30 30">
  <g id="invisible_box" data-name="invisible box">
    <rect id="Rectangle_1866" data-name="Rectangle 1866" width="30" height="30" fill="none"/>
  </g>
  <g id="Q3_icons" data-name="Q3 icons" transform="translate(5.64 6.278)">
    <path id="Path_11330" data-name="Path 11330" d="M16.841,10.377l-7.47,7.532a1.193,1.193,0,0,0,0,1.758l7.47,7.532a1.318,1.318,0,0,0,1.695.126,1.193,1.193,0,0,0,.126-1.883l-5.4-5.4H26.57a1.255,1.255,0,1,0,0-2.511H13.263l5.4-5.4a1.193,1.193,0,0,0-.126-1.883,1.318,1.318,0,0,0-1.695.126Z" transform="translate(-8.985 -10.001)" fill="#fff"/>
  </g>
</svg>
