<svg xmlns="http://www.w3.org/2000/svg" xmlns:xlink="http://www.w3.org/1999/xlink" width="56" height="56" viewBox="0 0 56 56">
  <defs>
    <filter id="Rectangle_1780" x="0" y="0" width="56" height="56" filterUnits="userSpaceOnUse">
      <feOffset dy="3" input="SourceAlpha"/>
      <feGaussianBlur stdDeviation="1.5" result="blur"/>
      <feFlood flood-opacity="0.161"/>
      <feComposite operator="in" in2="blur"/>
      <feComposite in="SourceGraphic"/>
    </filter>
    <clipPath id="clip-path">
      <rect id="Rectangle_1774" data-name="Rectangle 1774" width="42" height="43" rx="21" transform="translate(0.461 -0.299)" fill="#fff"/>
    </clipPath>
    <clipPath id="clip-path-2">
      <rect id="Rectangle_1758" data-name="Rectangle 1758" width="73.393" height="42.815" fill="none"/>
    </clipPath>
  </defs>
  <g id="aus" transform="translate(3.5 1.26)">
    <g transform="matrix(1, 0, 0, 1, -3.5, -1.26)" filter="url(#Rectangle_1780)">
      <rect id="Rectangle_1780-2" data-name="Rectangle 1780" width="47" height="47" rx="23.5" transform="translate(4.5 1.5)" fill="#fff"/>
    </g>
    <g id="Mask_Group_17" data-name="Mask Group 17" transform="translate(2.539 2.539)" clip-path="url(#clip-path)">
      <g id="AUSTRALIA" transform="translate(-17.657 0)">
        <g id="Group_9539" data-name="Group 9539" transform="translate(0 0)">
          <g id="Group_9538" data-name="Group 9538">
            <g id="Group_9537" data-name="Group 9537" clip-path="url(#clip-path-2)">
              <rect id="Rectangle_1757" data-name="Rectangle 1757" width="73.393" height="42.815" fill="#180087"/>
              <path id="Path_8854" data-name="Path 8854" d="M576.634,191.819l1.127,3.479L581.17,194l-2.011,3.039,3.131,1.862-3.63.316.5,3.611-2.524-2.642-2.5,2.642.5-3.611-3.639-.316,3.139-1.862L572.111,194l3.417,1.294Z" transform="translate(-557.333 -165.589)" fill="#fff"/>
              <path id="Path_8855" data-name="Path 8855" d="M592.684,194.679l.542,1.655,1.623-.613-.957,1.448,1.49.886-1.738.149.248,1.719-1.209-1.26-1.187,1.26.239-1.719-1.73-.149,1.49-.886-.957-1.448,1.623.613Z" transform="translate(-534.769 -162.196)" fill="#fff"/>
              <path id="Path_8856" data-name="Path 8856" d="M588.281,187.689l.53,1.653,1.623-.617-.957,1.452,1.491.886-1.73.145.239,1.723-1.2-1.26-1.2,1.26.239-1.723-1.73-.145,1.491-.886-.957-1.452,1.623.617Z" transform="translate(-540.01 -170.49)" fill="#fff"/>
              <path id="Path_8857" data-name="Path 8857" d="M592.684,182.906l.542,1.655,1.623-.613-.957,1.444,1.49.888-1.738.152.248,1.717-1.209-1.256-1.187,1.256.239-1.717-1.73-.152,1.49-.888-.957-1.444,1.623.613Z" transform="translate(-534.769 -176.167)" fill="#fff"/>
              <path id="Path_8858" data-name="Path 8858" d="M596.621,186.513l.525,1.653,1.636-.615L597.812,189l1.5.882-1.738.154.248,1.723-1.2-1.262-1.2,1.262.24-1.723-1.734-.154,1.495-.882-.957-1.448,1.623.615Z" transform="translate(-530.113 -171.887)" fill="#fff"/>
              <path id="Path_8859" data-name="Path 8859" d="M593.83,190.054l.423,1.031,1.106.081-.846.717.26,1.083-.944-.589-.94.589.261-1.083-.85-.717,1.11-.081Z" transform="translate(-532.046 -167.684)" fill="#fff"/>
              <path id="Path_8860" data-name="Path 8860" d="M580.839,179.824v6.439H564.746V192.7h16.093v6.436h6.428V192.7h16.1v-6.436h-16.1v-6.439Z" transform="translate(-564.746 -179.824)" fill="#fff"/>
              <path id="Path_8861" data-name="Path 8861" d="M564.746,179.824v2.159l34.3,17.152h4.314v-2.159l-34.3-17.152Z" transform="translate(-564.746 -179.824)" fill="#fff"/>
              <path id="Path_8862" data-name="Path 8862" d="M599.046,179.824l-34.3,17.152v2.159h4.318l34.3-17.152v-2.159Z" transform="translate(-564.746 -179.824)" fill="#fff"/>
              <path id="Path_8863" data-name="Path 8863" d="M582.121,179.824v7.724H564.746v3.863h17.374v7.724h3.861v-7.724H603.36v-3.863H585.981v-7.724Z" transform="translate(-564.746 -179.824)" fill="#ea0020"/>
              <path id="Path_8864" data-name="Path 8864" d="M564.746,179.824v1.441l9.987,5h2.887Zm35.736,0-12.869,6.44h2.88l12.867-6.44Z" transform="translate(-564.746 -179.824)" fill="#ea0020"/>
              <path id="Path_8865" data-name="Path 8865" d="M577.619,185.712l-12.873,6.436h2.88l12.871-6.436Zm12.873,0,12.876,6.436v-1.439l-10-5Z" transform="translate(-564.746 -172.837)" fill="#ea0020"/>
            </g>
          </g>
        </g>
      </g>
    </g>
  </g>
</svg>
