<svg xmlns="http://www.w3.org/2000/svg" xmlns:xlink="http://www.w3.org/1999/xlink" width="56" height="57" viewBox="0 0 56 57">
  <defs>
    <filter id="Rectangle_1778" x="0" y="0" width="56" height="57" filterUnits="userSpaceOnUse">
      <feOffset dy="3" input="SourceAlpha"/>
      <feGaussianBlur stdDeviation="1.5" result="blur"/>
      <feFlood flood-opacity="0.161"/>
      <feComposite operator="in" in2="blur"/>
      <feComposite in="SourceGraphic"/>
    </filter>
    <clipPath id="clip-path">
      <rect id="Rectangle_1776" data-name="Rectangle 1776" width="42" height="42" rx="21" transform="translate(0.461 0.139)" fill="#fff"/>
    </clipPath>
    <clipPath id="clip-path-2">
      <rect id="Rectangle_1770" data-name="Rectangle 1770" width="80.839" height="47.156" fill="none"/>
    </clipPath>
  </defs>
  <g id="can" transform="translate(3.5 1.821)">
    <g transform="matrix(1, 0, 0, 1, -3.5, -1.82)" filter="url(#Rectangle_1778)">
      <rect id="Rectangle_1778-2" data-name="Rectangle 1778" width="47" height="48" rx="23.5" transform="translate(4.5 1.5)" fill="#fff"/>
    </g>
    <g id="Mask_Group_19" data-name="Mask Group 19" transform="translate(2.539 2.539)" clip-path="url(#clip-path)">
      <g id="CANADA" transform="translate(-18.801 -1.789)">
        <g id="Group_9554" data-name="Group 9554" transform="translate(0 0)">
          <g id="Group_9553" data-name="Group 9553">
            <g id="Group_9552" data-name="Group 9552" clip-path="url(#clip-path-2)">
              <rect id="Rectangle_1766" data-name="Rectangle 1766" width="19.018" height="47.156" fill="#ea0020"/>
              <rect id="Rectangle_1767" data-name="Rectangle 1767" width="19.017" height="47.156" transform="translate(61.822)" fill="#ea0020"/>
              <rect id="Rectangle_1768" data-name="Rectangle 1768" width="42.805" height="47.156" transform="translate(19.018)" fill="#fff"/>
              <g id="Group_9551" data-name="Group 9551">
                <g id="Group_9550" data-name="Group 9550" clip-path="url(#clip-path-2)">
                  <path id="Path_8873" data-name="Path 8873" d="M69.686,258.644,66.88,264.09c-.318.593-.886.532-1.46.2l-2.03-1.1,1.513,8.375c.32,1.529-.7,1.529-1.2.87l-3.543-4.133-.576,2.1a.683.683,0,0,1-.8.5l-4.478-.985,1.175,4.458c.258.995.448,1.407-.253,1.667l-1.6.78,7.715,6.527a1.075,1.075,0,0,1,.347,1.094l-.674,2.31c2.654-.318,5.039-.609,7.688-.93.234,0,.629.21.626.491l-.352,8.454h1.293l-.207-8.435c0-.277.356-.511.588-.511,2.659.32,5.039.612,7.7.93l-.682-2.31a1.1,1.1,0,0,1,.354-1.094l7.712-6.527-1.6-.78c-.7-.26-.506-.672-.255-1.667l1.18-4.458-4.482.985a.684.684,0,0,1-.795-.5l-.573-2.1-3.546,4.133c-.5.66-1.525.66-1.2-.87l1.51-8.375-2.026,1.1c-.573.328-1.144.388-1.457-.2Z" transform="translate(-29.266 -252.53)" fill="#ea0020"/>
                </g>
              </g>
            </g>
          </g>
        </g>
      </g>
    </g>
  </g>
</svg>
