<svg xmlns="http://www.w3.org/2000/svg" width="110" height="110" viewBox="0 0 110 110">
  <g id="Group_9611" data-name="Group 9611" transform="translate(13634 -13082)">
    <g id="Group_9603" data-name="Group 9603">
      <circle id="Ellipse_696" data-name="Ellipse 696" cx="2.5" cy="2.5" r="2.5" transform="translate(-13634 13082)" fill="#f7eacb"/>
      <circle id="Ellipse_703" data-name="Ellipse 703" cx="2.5" cy="2.5" r="2.5" transform="translate(-13574 13082)" fill="#f7eacb"/>
      <circle id="Ellipse_699" data-name="Ellipse 699" cx="2.5" cy="2.5" r="2.5" transform="translate(-13604 13082)" fill="#f7eacb"/>
      <circle id="Ellipse_701" data-name="Ellipse 701" cx="2.5" cy="2.5" r="2.5" transform="translate(-13544 13082)" fill="#f7eacb"/>
      <circle id="Ellipse_697" data-name="Ellipse 697" cx="2.5" cy="2.5" r="2.5" transform="translate(-13619 13082)" fill="#f7eacb"/>
      <circle id="Ellipse_702" data-name="Ellipse 702" cx="2.5" cy="2.5" r="2.5" transform="translate(-13559 13082)" fill="#f7eacb"/>
      <circle id="Ellipse_698" data-name="Ellipse 698" cx="2.5" cy="2.5" r="2.5" transform="translate(-13589 13082)" fill="#f7eacb"/>
      <circle id="Ellipse_700" data-name="Ellipse 700" cx="2.5" cy="2.5" r="2.5" transform="translate(-13529 13082)" fill="#f7eacb"/>
    </g>
    <g id="Group_9607" data-name="Group 9607" transform="translate(0 60)">
      <circle id="Ellipse_696-2" data-name="Ellipse 696" cx="2.5" cy="2.5" r="2.5" transform="translate(-13634 13082)" fill="#f7eacb"/>
      <circle id="Ellipse_703-2" data-name="Ellipse 703" cx="2.5" cy="2.5" r="2.5" transform="translate(-13574 13082)" fill="#f7eacb"/>
      <circle id="Ellipse_699-2" data-name="Ellipse 699" cx="2.5" cy="2.5" r="2.5" transform="translate(-13604 13082)" fill="#f7eacb"/>
      <circle id="Ellipse_701-2" data-name="Ellipse 701" cx="2.5" cy="2.5" r="2.5" transform="translate(-13544 13082)" fill="#f7eacb"/>
      <circle id="Ellipse_697-2" data-name="Ellipse 697" cx="2.5" cy="2.5" r="2.5" transform="translate(-13619 13082)" fill="#f7eacb"/>
      <circle id="Ellipse_702-2" data-name="Ellipse 702" cx="2.5" cy="2.5" r="2.5" transform="translate(-13559 13082)" fill="#f7eacb"/>
      <circle id="Ellipse_698-2" data-name="Ellipse 698" cx="2.5" cy="2.5" r="2.5" transform="translate(-13589 13082)" fill="#f7eacb"/>
      <circle id="Ellipse_700-2" data-name="Ellipse 700" cx="2.5" cy="2.5" r="2.5" transform="translate(-13529 13082)" fill="#f7eacb"/>
    </g>
    <g id="Group_9606" data-name="Group 9606" transform="translate(0 30)">
      <circle id="Ellipse_696-3" data-name="Ellipse 696" cx="2.5" cy="2.5" r="2.5" transform="translate(-13634 13082)" fill="#f7eacb"/>
      <circle id="Ellipse_703-3" data-name="Ellipse 703" cx="2.5" cy="2.5" r="2.5" transform="translate(-13574 13082)" fill="#f7eacb"/>
      <circle id="Ellipse_699-3" data-name="Ellipse 699" cx="2.5" cy="2.5" r="2.5" transform="translate(-13604 13082)" fill="#f7eacb"/>
      <circle id="Ellipse_701-3" data-name="Ellipse 701" cx="2.5" cy="2.5" r="2.5" transform="translate(-13544 13082)" fill="#f7eacb"/>
      <circle id="Ellipse_697-3" data-name="Ellipse 697" cx="2.5" cy="2.5" r="2.5" transform="translate(-13619 13082)" fill="#f7eacb"/>
      <circle id="Ellipse_702-3" data-name="Ellipse 702" cx="2.5" cy="2.5" r="2.5" transform="translate(-13559 13082)" fill="#f7eacb"/>
      <circle id="Ellipse_698-3" data-name="Ellipse 698" cx="2.5" cy="2.5" r="2.5" transform="translate(-13589 13082)" fill="#f7eacb"/>
      <circle id="Ellipse_700-3" data-name="Ellipse 700" cx="2.5" cy="2.5" r="2.5" transform="translate(-13529 13082)" fill="#f7eacb"/>
    </g>
    <g id="Group_9609" data-name="Group 9609" transform="translate(0 90)">
      <circle id="Ellipse_696-4" data-name="Ellipse 696" cx="2.5" cy="2.5" r="2.5" transform="translate(-13634 13082)" fill="#f7eacb"/>
      <circle id="Ellipse_703-4" data-name="Ellipse 703" cx="2.5" cy="2.5" r="2.5" transform="translate(-13574 13082)" fill="#f7eacb"/>
      <circle id="Ellipse_699-4" data-name="Ellipse 699" cx="2.5" cy="2.5" r="2.5" transform="translate(-13604 13082)" fill="#f7eacb"/>
      <circle id="Ellipse_701-4" data-name="Ellipse 701" cx="2.5" cy="2.5" r="2.5" transform="translate(-13544 13082)" fill="#f7eacb"/>
      <circle id="Ellipse_697-4" data-name="Ellipse 697" cx="2.5" cy="2.5" r="2.5" transform="translate(-13619 13082)" fill="#f7eacb"/>
      <circle id="Ellipse_702-4" data-name="Ellipse 702" cx="2.5" cy="2.5" r="2.5" transform="translate(-13559 13082)" fill="#f7eacb"/>
      <circle id="Ellipse_698-4" data-name="Ellipse 698" cx="2.5" cy="2.5" r="2.5" transform="translate(-13589 13082)" fill="#f7eacb"/>
      <circle id="Ellipse_700-4" data-name="Ellipse 700" cx="2.5" cy="2.5" r="2.5" transform="translate(-13529 13082)" fill="#f7eacb"/>
    </g>
    <g id="Group_9604" data-name="Group 9604" transform="translate(0 15)">
      <circle id="Ellipse_696-5" data-name="Ellipse 696" cx="2.5" cy="2.5" r="2.5" transform="translate(-13634 13082)" fill="#f7eacb"/>
      <circle id="Ellipse_703-5" data-name="Ellipse 703" cx="2.5" cy="2.5" r="2.5" transform="translate(-13574 13082)" fill="#f7eacb"/>
      <circle id="Ellipse_699-5" data-name="Ellipse 699" cx="2.5" cy="2.5" r="2.5" transform="translate(-13604 13082)" fill="#f7eacb"/>
      <circle id="Ellipse_701-5" data-name="Ellipse 701" cx="2.5" cy="2.5" r="2.5" transform="translate(-13544 13082)" fill="#f7eacb"/>
      <circle id="Ellipse_697-5" data-name="Ellipse 697" cx="2.5" cy="2.5" r="2.5" transform="translate(-13619 13082)" fill="#f7eacb"/>
      <circle id="Ellipse_702-5" data-name="Ellipse 702" cx="2.5" cy="2.5" r="2.5" transform="translate(-13559 13082)" fill="#f7eacb"/>
      <circle id="Ellipse_698-5" data-name="Ellipse 698" cx="2.5" cy="2.5" r="2.5" transform="translate(-13589 13082)" fill="#f7eacb"/>
      <circle id="Ellipse_700-5" data-name="Ellipse 700" cx="2.5" cy="2.5" r="2.5" transform="translate(-13529 13082)" fill="#f7eacb"/>
    </g>
    <g id="Group_9608" data-name="Group 9608" transform="translate(0 75)">
      <circle id="Ellipse_696-6" data-name="Ellipse 696" cx="2.5" cy="2.5" r="2.5" transform="translate(-13634 13082)" fill="#f7eacb"/>
      <circle id="Ellipse_703-6" data-name="Ellipse 703" cx="2.5" cy="2.5" r="2.5" transform="translate(-13574 13082)" fill="#f7eacb"/>
      <circle id="Ellipse_699-6" data-name="Ellipse 699" cx="2.5" cy="2.5" r="2.5" transform="translate(-13604 13082)" fill="#f7eacb"/>
      <circle id="Ellipse_701-6" data-name="Ellipse 701" cx="2.5" cy="2.5" r="2.5" transform="translate(-13544 13082)" fill="#f7eacb"/>
      <circle id="Ellipse_697-6" data-name="Ellipse 697" cx="2.5" cy="2.5" r="2.5" transform="translate(-13619 13082)" fill="#f7eacb"/>
      <circle id="Ellipse_702-6" data-name="Ellipse 702" cx="2.5" cy="2.5" r="2.5" transform="translate(-13559 13082)" fill="#f7eacb"/>
      <circle id="Ellipse_698-6" data-name="Ellipse 698" cx="2.5" cy="2.5" r="2.5" transform="translate(-13589 13082)" fill="#f7eacb"/>
      <circle id="Ellipse_700-6" data-name="Ellipse 700" cx="2.5" cy="2.5" r="2.5" transform="translate(-13529 13082)" fill="#f7eacb"/>
    </g>
    <g id="Group_9605" data-name="Group 9605" transform="translate(0 45)">
      <circle id="Ellipse_696-7" data-name="Ellipse 696" cx="2.5" cy="2.5" r="2.5" transform="translate(-13634 13082)" fill="#f7eacb"/>
      <circle id="Ellipse_703-7" data-name="Ellipse 703" cx="2.5" cy="2.5" r="2.5" transform="translate(-13574 13082)" fill="#f7eacb"/>
      <circle id="Ellipse_699-7" data-name="Ellipse 699" cx="2.5" cy="2.5" r="2.5" transform="translate(-13604 13082)" fill="#f7eacb"/>
      <circle id="Ellipse_701-7" data-name="Ellipse 701" cx="2.5" cy="2.5" r="2.5" transform="translate(-13544 13082)" fill="#f7eacb"/>
      <circle id="Ellipse_697-7" data-name="Ellipse 697" cx="2.5" cy="2.5" r="2.5" transform="translate(-13619 13082)" fill="#f7eacb"/>
      <circle id="Ellipse_702-7" data-name="Ellipse 702" cx="2.5" cy="2.5" r="2.5" transform="translate(-13559 13082)" fill="#f7eacb"/>
      <circle id="Ellipse_698-7" data-name="Ellipse 698" cx="2.5" cy="2.5" r="2.5" transform="translate(-13589 13082)" fill="#f7eacb"/>
      <circle id="Ellipse_700-7" data-name="Ellipse 700" cx="2.5" cy="2.5" r="2.5" transform="translate(-13529 13082)" fill="#f7eacb"/>
    </g>
    <g id="Group_9610" data-name="Group 9610" transform="translate(0 105)">
      <circle id="Ellipse_696-8" data-name="Ellipse 696" cx="2.5" cy="2.5" r="2.5" transform="translate(-13634 13082)" fill="#f7eacb"/>
      <circle id="Ellipse_703-8" data-name="Ellipse 703" cx="2.5" cy="2.5" r="2.5" transform="translate(-13574 13082)" fill="#f7eacb"/>
      <circle id="Ellipse_699-8" data-name="Ellipse 699" cx="2.5" cy="2.5" r="2.5" transform="translate(-13604 13082)" fill="#f7eacb"/>
      <circle id="Ellipse_701-8" data-name="Ellipse 701" cx="2.5" cy="2.5" r="2.5" transform="translate(-13544 13082)" fill="#f7eacb"/>
      <circle id="Ellipse_697-8" data-name="Ellipse 697" cx="2.5" cy="2.5" r="2.5" transform="translate(-13619 13082)" fill="#f7eacb"/>
      <circle id="Ellipse_702-8" data-name="Ellipse 702" cx="2.5" cy="2.5" r="2.5" transform="translate(-13559 13082)" fill="#f7eacb"/>
      <circle id="Ellipse_698-8" data-name="Ellipse 698" cx="2.5" cy="2.5" r="2.5" transform="translate(-13589 13082)" fill="#f7eacb"/>
      <circle id="Ellipse_700-8" data-name="Ellipse 700" cx="2.5" cy="2.5" r="2.5" transform="translate(-13529 13082)" fill="#f7eacb"/>
    </g>
  </g>
</svg>
