<svg xmlns="http://www.w3.org/2000/svg" width="23" height="23" viewBox="0 0 23 23">
  <g id="Layer_2" data-name="Layer 2" transform="translate(0.482 0.505)">
    <g id="invisible_box" data-name="invisible box" transform="translate(0 -0.022)">
      <rect id="Rectangle_1821" data-name="Rectangle 1821" width="23" height="23" transform="translate(-0.482 -0.482)" fill="none"/>
    </g>
    <g id="icons_Q2" data-name="icons Q2" transform="translate(1.835 1.832)">
      <path id="Path_11181" data-name="Path 11181" d="M21.429,41.835H4.917a.917.917,0,0,1,0-1.835H21.429a.917.917,0,0,1,0,1.835Z" transform="translate(-4 -23.488)" fill="#fff"/>
      <path id="Path_11182" data-name="Path 11182" d="M12.276,13.861,16.862,18.4a.871.871,0,0,0,1.284,0l4.587-4.541a.963.963,0,0,0,.092-1.238.871.871,0,0,0-1.376-.092l-3.027,3.027V4.917a.917.917,0,1,0-1.835,0V15.558L13.56,12.531a.871.871,0,0,0-1.376.092A.963.963,0,0,0,12.276,13.861Z" transform="translate(-8.331 -4)" fill="#fff"/>
    </g>
  </g>
</svg>
