<svg xmlns="http://www.w3.org/2000/svg" width="45" height="45" viewBox="0 0 45 45">
  <g id="Group_9522" data-name="Group 9522" transform="translate(-650 -3480)">
    <rect id="Rectangle_1752" data-name="Rectangle 1752" width="45" height="45" rx="10" transform="translate(650 3480)" fill="#fcf5d7"/>
    <g id="sxBGR9" transform="translate(664 3496)">
      <g id="Group_162" data-name="Group 162" transform="translate(0)">
        <path id="Path_697" data-name="Path 697" d="M461.874,685.539a2.593,2.593,0,0,1-.621,1.312,2.368,2.368,0,0,1-1.759.819c-1.145.019-2.292.008-3.437.008h-8.462A2.471,2.471,0,0,1,445.1,685.2q-.006-3.11,0-6.22c0-.057-.028-.134.031-.166s.11.03.159.06q3.8,2.316,7.6,4.634a1.059,1.059,0,0,0,1.2,0q3.477-2.126,6.959-4.243l.824-.5Z" transform="translate(-445.094 -675.28)" fill="#e0aa32"/>
        <path id="Path_698" data-name="Path 698" d="M453.984,657.411q2.978,0,5.956,0a2.508,2.508,0,0,1,2.333,1.808c.037.132-.015.184-.115.244q-1.817,1.106-3.63,2.217-2.17,1.327-4.339,2.657a.346.346,0,0,1-.424,0q-3.973-2.439-7.956-4.864a.219.219,0,0,1-.117-.3,2.49,2.49,0,0,1,2.352-1.761c1.98-.008,3.96,0,5.94,0Z" transform="translate(-445.578 -657.409)" fill="#e0aa32"/>
      </g>
    </g>
  </g>
</svg>
