<svg xmlns="http://www.w3.org/2000/svg" width="18.845" height="13.927" viewBox="0 0 18.845 13.927">
  <g id="Email" transform="translate(0 0)">
    <g id="Group_162" data-name="Group 162" transform="translate(0 0)">
      <path id="Path_697" data-name="Path 697" d="M463.939,686.373a2.912,2.912,0,0,1-.7,1.474,2.66,2.66,0,0,1-1.975.92c-1.286.021-2.574.008-3.86.008h-9.5a2.775,2.775,0,0,1-2.8-2.782q-.007-3.493,0-6.986c0-.064-.032-.15.035-.186s.124.034.179.067q4.27,2.6,8.537,5.2a1.189,1.189,0,0,0,1.346,0q3.9-2.388,7.815-4.765l.925-.565Z" transform="translate(-445.094 -674.852)" fill="#062951"/>
      <path id="Path_698" data-name="Path 698" d="M455.007,657.411q3.344,0,6.689,0a2.817,2.817,0,0,1,2.62,2.03c.041.149-.017.207-.129.275q-2.04,1.242-4.077,2.49-2.438,1.49-4.873,2.984a.389.389,0,0,1-.476,0q-4.463-2.74-8.935-5.462a.246.246,0,0,1-.131-.338,2.8,2.8,0,0,1,2.641-1.977c2.224-.009,4.447,0,6.671,0Z" transform="translate(-445.566 -657.409)" fill="#062951"/>
    </g>
  </g>
</svg>
