<svg xmlns="http://www.w3.org/2000/svg" width="12.753" height="9.425" viewBox="0 0 12.753 9.425">
  <g id="Email" transform="translate(-445.094 -657.409)">
    <g id="Group_162" data-name="Group 162" transform="translate(445.094 657.409)">
      <path id="Path_697" data-name="Path 697" d="M457.848,683.913a1.971,1.971,0,0,1-.472,1,1.8,1.8,0,0,1-1.337.622c-.871.014-1.742.006-2.613.006h-6.432a1.878,1.878,0,0,1-1.895-1.883q0-2.364,0-4.728c0-.043-.021-.1.024-.126s.084.023.121.045q2.889,1.76,5.778,3.522a.8.8,0,0,0,.911,0q2.642-1.616,5.289-3.225l.626-.383Z" transform="translate(-445.094 -676.116)" fill="#fff"/>
      <path id="Path_698" data-name="Path 698" d="M451.989,657.411q2.263,0,4.527,0a1.907,1.907,0,0,1,1.773,1.374c.028.1-.012.14-.087.186q-1.381.84-2.759,1.685-1.65,1.008-3.3,2.019a.263.263,0,0,1-.322,0q-3.02-1.854-6.047-3.7a.166.166,0,0,1-.089-.229,1.892,1.892,0,0,1,1.788-1.338c1.5-.006,3.01,0,4.515,0Z" transform="translate(-445.6 -657.409)" fill="#fff"/>
    </g>
  </g>
</svg>
