<svg xmlns="http://www.w3.org/2000/svg" width="5.73" height="12.335" viewBox="0 0 5.73 12.335">
  <path id="fb" d="M-287.42,53.741V59.7a.155.155,0,0,0,.155.155h2.215a.155.155,0,0,0,.155-.155V53.644h1.606a.155.155,0,0,0,.155-.142l.155-1.826a.155.155,0,0,0-.155-.169h-1.76v-1.3a.55.55,0,0,1,.55-.55h1.237a.155.155,0,0,0,.155-.155V47.68a.155.155,0,0,0-.155-.155H-285.2a2.221,2.221,0,0,0-2.221,2.221v1.761h-1.107a.156.156,0,0,0-.155.155v1.826a.155.155,0,0,0,.155.155h1.107v.1Z" transform="translate(288.683 -47.525)" fill="#fff" fill-rule="evenodd"/>
</svg>
