<svg id="Group_9770" data-name="Group 9770" xmlns="http://www.w3.org/2000/svg" width="45" height="45" viewBox="0 0 45 45">
  <rect id="_4" data-name="4" width="45" height="45" rx="10" fill="#fcf5d7"/>
  <path id="fbKA" d="M-287.062,55.508v7.659a.2.2,0,0,0,.2.2h2.844a.2.2,0,0,0,.2-.2V55.383h2.062a.2.2,0,0,0,.2-.183l.2-2.345a.2.2,0,0,0-.2-.216h-2.26V50.975a.706.706,0,0,1,.706-.706h1.589a.2.2,0,0,0,.2-.2V47.725a.2.2,0,0,0-.2-.2h-2.685a2.853,2.853,0,0,0-2.853,2.853v2.261h-1.422a.2.2,0,0,0-.2.2v2.345a.2.2,0,0,0,.2.2h1.422v.125Z" transform="translate(307.504 -32.945)" fill="#e0aa32" fill-rule="evenodd"/>
</svg>
