<svg xmlns="http://www.w3.org/2000/svg" width="31" height="31" viewBox="0 0 31 31">
  <g id="Layer_2" data-name="Layer 2" transform="translate(0.067)">
    <g id="invisible_box" data-name="invisible box" transform="translate(-0.175)">
      <rect id="Rectangle_1891" data-name="Rectangle 1891" width="31" height="31" transform="translate(0.108)" fill="none"/>
    </g>
    <g id="icons_Q2" data-name="icons Q2" transform="translate(3.89 6.439)">
      <g id="Group_9786" data-name="Group 9786">
        <path id="Path_11338" data-name="Path 11338" d="M21.453,11.288a1.288,1.288,0,0,1-1.288,1.288H7.288A1.288,1.288,0,0,1,6,11.288H6A1.288,1.288,0,0,1,7.288,10H20.165A1.288,1.288,0,0,1,21.453,11.288Z" transform="translate(-6 -10)" fill="#fff"/>
        <path id="Path_11339" data-name="Path 11339" d="M29.18,23.288a1.288,1.288,0,0,1-1.288,1.288H7.288A1.288,1.288,0,0,1,6,23.288H6A1.288,1.288,0,0,1,7.288,22h20.6A1.288,1.288,0,0,1,29.18,23.288Z" transform="translate(-6 -14.273)" fill="#fff"/>
        <path id="Path_11340" data-name="Path 11340" d="M29.18,35.288a1.288,1.288,0,0,1-1.288,1.288H7.288A1.288,1.288,0,0,1,6,35.288H6A1.288,1.288,0,0,1,7.288,34h20.6A1.288,1.288,0,0,1,29.18,35.288Z" transform="translate(-6 -18.547)" fill="#fff"/>
      </g>
    </g>
  </g>
</svg>
