<svg xmlns="http://www.w3.org/2000/svg" xmlns:xlink="http://www.w3.org/1999/xlink" width="56" height="56" viewBox="0 0 56 56">
  <defs>
    <filter id="Rectangle_1779" x="0" y="0" width="56" height="56" filterUnits="userSpaceOnUse">
      <feOffset dy="3" input="SourceAlpha"/>
      <feGaussianBlur stdDeviation="1.5" result="blur"/>
      <feFlood flood-opacity="0.161"/>
      <feComposite operator="in" in2="blur"/>
      <feComposite in="SourceGraphic"/>
    </filter>
    <clipPath id="clip-path">
      <rect id="Rectangle_1775" data-name="Rectangle 1775" width="42" height="42" rx="21" transform="translate(0.461 0.426)" fill="#fff"/>
    </clipPath>
    <clipPath id="clip-path-2">
      <rect id="Rectangle_1763" data-name="Rectangle 1763" width="72.864" height="42.504" fill="none"/>
    </clipPath>
  </defs>
  <g id="in" transform="translate(3.5 0.535)">
    <g transform="matrix(1, 0, 0, 1, -3.5, -0.54)" filter="url(#Rectangle_1779)">
      <rect id="Rectangle_1779-2" data-name="Rectangle 1779" width="47" height="47" rx="23.5" transform="translate(4.5 1.5)" fill="#fff"/>
    </g>
    <g id="Mask_Group_18" data-name="Mask Group 18" transform="translate(2.539 2.539)" clip-path="url(#clip-path)">
      <g id="INDIA" transform="translate(-15.118 -0.179)">
        <g id="Group_9544" data-name="Group 9544" transform="translate(0 0)">
          <g id="Group_9543" data-name="Group 9543">
            <g id="Group_9542" data-name="Group 9542" clip-path="url(#clip-path-2)">
              <rect id="Rectangle_1759" data-name="Rectangle 1759" width="72.864" height="42.504" fill="#fff"/>
              <rect id="Rectangle_1760" data-name="Rectangle 1760" width="72.864" height="14.171" fill="#f0953e"/>
              <rect id="Rectangle_1761" data-name="Rectangle 1761" width="72.864" height="14.162" transform="translate(0 28.342)" fill="#3b8916"/>
              <g id="Group_9541" data-name="Group 9541">
                <g id="Group_9540" data-name="Group 9540" clip-path="url(#clip-path-2)">
                  <path id="Path_8866" data-name="Path 8866" d="M741.337,453.66a6.373,6.373,0,1,0,6.378,6.37,6.373,6.373,0,0,0-6.378-6.37m0,.619-.163,3.206.174,1.824.163-1.824-.163-3.206a4.575,4.575,0,0,1,.493.026l-.009.017a.275.275,0,0,0,.263.28.265.265,0,0,0,.258-.239,4.8,4.8,0,0,1,.471.111l-.983,3.052-.315,1.806.636-1.728.68-3.131c.152.052.3.093.458.152a.308.308,0,0,0-.022.093.266.266,0,0,0,.267.265.269.269,0,0,0,.241-.163c.145.069.284.145.43.23l-1.743,2.679-.771,1.68,1.064-1.5,1.463-2.848c.13.076.267.161.4.245a.271.271,0,0,0-.059.169.263.263,0,0,0,.267.263.225.225,0,0,0,.206-.111q.192.166.358.332l-2.375,2.145-1.174,1.416,1.411-1.17,2.149-2.382c.111.117.221.228.323.356a.255.255,0,0,0-.093.2.263.263,0,0,0,.258.265.243.243,0,0,0,.156-.052,4.265,4.265,0,0,1,.258.408l-2.848,1.459-1.5,1.068,1.665-.764,2.692-1.754c.089.152.163.313.234.449a.289.289,0,0,0-.161.254.263.263,0,0,0,.258.263.194.194,0,0,0,.1-.026c.05.152.1.3.135.449l-3.133.662-1.717.636,1.806-.306,3.052-.975c.039.135.076.306.106.458a.257.257,0,0,0-.23.263.269.269,0,0,0,.267.263h.026a4.359,4.359,0,0,1,.017.475l-3.2-.152-1.832.161,1.832.178,3.2-.169a4.321,4.321,0,0,1-.017.482h-.026a.275.275,0,0,0-.267.263.27.27,0,0,0,.226.265c-.03.161-.063.313-.1.465l-1.09-.347-1.963-.636-1.806-.3h0l1.717.636,3.133.669a2.844,2.844,0,0,1-.143.449l-.035-.009h-.059a.259.259,0,0,0-.267.263.214.214,0,0,0,.024.1h0a.2.2,0,0,0,.074.1h0l.02.009h0l.026.017h0l.017.017c-.067.143-.146.287-.226.423l-2.688-1.739h0l-1.665-.762h.007l.875.61.619.441h0l2.848,1.459a4.838,4.838,0,0,1-.263.415.317.317,0,0,0-.152-.041.255.255,0,0,0-.263.254.243.243,0,0,0,.1.2c-.106.117-.213.237-.323.347l-2.149-2.375-1.407-1.17,1.17,1.416,2.375,2.147a3.619,3.619,0,0,1-.345.313.249.249,0,0,0-.165-.059.269.269,0,0,0-.263.263.317.317,0,0,0,.022.119c-.141.085-.284.178-.423.271l-1.463-2.85-1.064-1.509h0l.766,1.67,1.743,2.7c-.141.076-.28.152-.425.219a.244.244,0,0,0-.237-.161.27.27,0,0,0-.267.263.417.417,0,0,0,.017.1,4.429,4.429,0,0,1-.458.135l-.68-3.137-.636-1.7v-.009l.315,1.806.983,3.052a2.98,2.98,0,0,1-.471.1.27.27,0,0,0-.258-.219.256.256,0,0,0-.263.254v.033a4.5,4.5,0,0,1-.484.026l.163-3.2-.172-1.83-.165,1.83.163,3.2a4.6,4.6,0,0,1-.493-.026v-.033a.263.263,0,0,0-.267-.254.269.269,0,0,0-.258.219,3.812,3.812,0,0,1-.458-.1l.983-3.052.3-1.8-.634,1.7-.671,3.137c-.152-.033-.306-.085-.463-.135a.284.284,0,0,0,.022-.1.269.269,0,0,0-.258-.263.28.28,0,0,0-.25.161c-.141-.067-.284-.143-.425-.219l1.743-2.7.762-1.67-1.059,1.5-1.459,2.859c-.139-.093-.28-.178-.41-.271a.217.217,0,0,0,.05-.145.265.265,0,0,0-.258-.271.252.252,0,0,0-.2.1c-.126-.111-.245-.2-.356-.321l2.384-2.147,1.17-1.416h0l-1.411,1.17-2.151,2.375c-.117-.111-.224-.239-.33-.347a.29.29,0,0,0,.1-.213.258.258,0,0,0-.263-.254.322.322,0,0,0-.156.041,4.2,4.2,0,0,1-.261-.406l2.859-1.468,1.487-1.042-1.665.762-2.688,1.739c-.08-.137-.145-.271-.217-.423a.248.248,0,0,0,.169-.239.265.265,0,0,0-.267-.271.252.252,0,0,0-.111.026c-.05-.143-.1-.306-.148-.467l3.137-.669,1.726-.636-1.815.3-3.052.983c-.043-.152-.072-.3-.106-.473a.255.255,0,0,0,.23-.256.265.265,0,0,0-.263-.263h-.03c-.009-.152-.022-.313-.022-.482l3.2.169,1.828-.178-1.828-.161-3.2.152c0-.152.013-.323.022-.475h.046a.258.258,0,0,0,.263-.263.263.263,0,0,0-.245-.263c.035-.152.063-.324.106-.458l3.052.975,1.815.306-1.726-.636-3.137-.671c.046-.161.1-.313.148-.458a.373.373,0,0,0,.1.017.261.261,0,0,0,.263-.263.25.25,0,0,0-.156-.237c.067-.154.141-.3.221-.441l2.688,1.754,1.674.764-1.5-1.068-2.859-1.459c.083-.137.172-.271.265-.417a.207.207,0,0,0,.156.061.268.268,0,0,0,.263-.265.328.328,0,0,0-.1-.211c.1-.119.2-.23.319-.347l2.149,2.382,1.415,1.17-1.17-1.416-2.384-2.145c.119-.111.234-.221.356-.323a.252.252,0,0,0,.2.1.265.265,0,0,0,.267-.271.31.31,0,0,0-.054-.161c.135-.076.267-.169.406-.245l1.459,2.848,1.059,1.494-.762-1.672-1.743-2.679c.141-.085.28-.161.421-.23a.263.263,0,0,0,.245.169.259.259,0,0,0,.263-.254.375.375,0,0,0-.018-.111c.15-.059.31-.1.463-.152l.68,3.131.636,1.728-.31-1.806-.983-3.052a4.449,4.449,0,0,1,.467-.111.262.262,0,0,0,.258.23.268.268,0,0,0,.267-.271V454.3a4.345,4.345,0,0,1,.48-.017" transform="translate(-704.906 -438.777)" fill="#16007e"/>
                  <path id="Path_8867" data-name="Path 8867" d="M738.418,456.156a.954.954,0,1,1-.957.951.953.953,0,0,1,.957-.951" transform="translate(-701.979 -435.854)" fill="#fff"/>
                  <path id="Path_8868" data-name="Path 8868" d="M738.3,456.258a.729.729,0,0,1,.734.729.739.739,0,1,1-.734-.729" transform="translate(-701.864 -435.735)" fill="#16007e"/>
                </g>
              </g>
            </g>
          </g>
        </g>
      </g>
    </g>
  </g>
</svg>
