<svg xmlns="http://www.w3.org/2000/svg" width="45" height="45" viewBox="0 0 45 45">
  <g id="Group_9771" data-name="Group 9771" transform="translate(0 -60)">
    <rect id="_5" data-name="5" width="45" height="45" rx="10" transform="translate(0 60)" fill="#fcf5d7"/>
    <g id="instaKA" transform="translate(14.176 74.673)">
      <g id="Group_90" data-name="Group 90">
        <path id="Path_301" data-name="Path 301" d="M132.867,22.3c0,1.14.005,2.28,0,3.421a4.334,4.334,0,0,1-4.36,4.378q-3.461.014-6.923,0a4.332,4.332,0,0,1-4.358-4.38q-.01-3.441,0-6.882a4.331,4.331,0,0,1,4.36-4.378q3.461-.014,6.923,0a4.333,4.333,0,0,1,4.359,4.379C132.872,19.988,132.867,21.142,132.867,22.3Zm-7.82-4.358a4.337,4.337,0,1,0,4.335,4.349A4.315,4.315,0,0,0,125.048,17.938Zm6.083-.877a.871.871,0,1,0-.892.87A.89.89,0,0,0,131.131,17.061Z" transform="translate(-117.22 -14.448)" fill="#e0aa32"/>
        <path id="Path_302" data-name="Path 302" d="M136.656,31.293a2.607,2.607,0,1,1-2.605-2.619A2.605,2.605,0,0,1,136.656,31.293Z" transform="translate(-126.223 -23.454)" fill="#e0aa32"/>
      </g>
    </g>
  </g>
</svg>
