<svg id="Insta" xmlns="http://www.w3.org/2000/svg" width="12.186" height="12.189" viewBox="0 0 12.186 12.189">
  <g id="Group_90" data-name="Group 90" transform="translate(0 0)">
    <path id="Path_301" data-name="Path 301" d="M129.4,20.559c0,.888,0,1.776,0,2.663a3.375,3.375,0,0,1-3.4,3.409q-2.7.011-5.391,0a3.373,3.373,0,0,1-3.393-3.41q-.008-2.679,0-5.359a3.372,3.372,0,0,1,3.395-3.409q2.7-.011,5.391,0a3.374,3.374,0,0,1,3.394,3.41C129.408,18.762,129.4,19.66,129.4,20.559Zm-6.089-3.393a3.377,3.377,0,1,0,3.375,3.386A3.36,3.36,0,0,0,123.315,17.165Zm4.737-.683a.678.678,0,1,0-.694.677A.693.693,0,0,0,128.052,16.482Z" transform="translate(-117.22 -14.448)" fill="#fff"/>
    <path id="Path_302" data-name="Path 302" d="M135.5,30.713a2.03,2.03,0,1,1-2.029-2.039A2.029,2.029,0,0,1,135.5,30.713Z" transform="translate(-127.378 -24.609)" fill="#fff"/>
  </g>
</svg>
