<svg xmlns="http://www.w3.org/2000/svg" width="45" height="45" viewBox="0 0 45 45">
  <g id="Group_9772" data-name="Group 9772" transform="translate(0 -120)">
    <rect id="_6" data-name="6" width="45" height="45" rx="10" transform="translate(0 120)" fill="#fcf5d7"/>
    <g id="Group_217" data-name="Group 217" transform="translate(14.777 134.778)">
      <path id="Path_2644" data-name="Path 2644" d="M3687.457,7347.2v-10.168a3.335,3.335,0,0,1,2.638-2.638h10.168a3.335,3.335,0,0,1,2.638,2.638V7347.2a3.335,3.335,0,0,1-2.638,2.639H3690.1A3.335,3.335,0,0,1,3687.457,7347.2Zm8.34-6.615c0-.241,0-.486,0-.731.005-.205-.088-.29-.291-.287-.429,0-.857.007-1.287,0-.22,0-.306.087-.306.306q.006,3.2,0,6.4c0,.232.083.332.32.325.386-.011.773-.019,1.158,0,.308.018.416-.088.411-.4-.016-1.072,0-2.145-.006-3.217a1.639,1.639,0,0,1,.315-1.025,1.23,1.23,0,0,1,1.143-.528,1.2,1.2,0,0,1,1.033.806,1.931,1.931,0,0,1,.134.755c0,1.083,0,2.166,0,3.249,0,.259.08.372.351.361.417-.015.836-.007,1.254,0,.185,0,.282-.072.278-.266-.028-1.521.075-3.046-.058-4.565a2.173,2.173,0,0,0-1.385-2,2.5,2.5,0,0,0-2.57.412C3696.13,7340.3,3695.979,7340.433,3695.8,7340.584Zm-3.217,2.5c0-1.06,0-2.12,0-3.18,0-.249-.088-.348-.338-.34-.417.012-.835.007-1.252,0-.2,0-.294.077-.293.284q0,3.229,0,6.457c0,.2.084.292.289.29.4-.006.793-.018,1.188,0,.307.017.416-.086.411-.4C3692.57,7345.16,3692.58,7344.121,3692.58,7343.083Zm.134-5.485a1.074,1.074,0,1,0-1.081,1.084A1.077,1.077,0,0,0,3692.714,7337.6Z" transform="translate(-3687.457 -7334.394)" fill="#e0aa32"/>
    </g>
  </g>
</svg>
