<svg xmlns="http://www.w3.org/2000/svg" width="12.206" height="12.206" viewBox="0 0 12.206 12.206">
  <g id="Lin" transform="translate(0 0)">
    <path id="Path_2644" data-name="Path 2644" d="M3687.457,7344.515v-8.036a2.637,2.637,0,0,1,2.085-2.085h8.036a2.636,2.636,0,0,1,2.085,2.085v8.036a2.636,2.636,0,0,1-2.085,2.085h-8.036A2.637,2.637,0,0,1,3687.457,7344.515Zm6.592-5.229c0-.19,0-.385,0-.578,0-.162-.069-.229-.23-.227-.339,0-.678,0-1.017,0-.174,0-.242.068-.242.241q0,2.531,0,5.06c0,.185.066.263.253.258.305-.009.611-.015.915,0,.243.014.328-.069.325-.318-.012-.847,0-1.694,0-2.542a1.3,1.3,0,0,1,.249-.811.971.971,0,0,1,.9-.417.943.943,0,0,1,.816.637,1.529,1.529,0,0,1,.106.6c0,.855,0,1.712,0,2.567,0,.2.063.294.277.285.33-.011.661,0,.991,0,.146,0,.223-.057.22-.21-.022-1.2.059-2.407-.046-3.608a1.718,1.718,0,0,0-1.095-1.581,1.973,1.973,0,0,0-2.031.325C3694.312,7339.062,3694.192,7339.166,3694.049,7339.286Zm-2.543,1.975c0-.837,0-1.676,0-2.513,0-.2-.07-.274-.268-.269-.33.009-.66,0-.99,0-.159,0-.232.061-.232.225q0,2.55,0,5.1c0,.16.066.23.228.229.313,0,.627-.014.939,0,.242.013.328-.068.324-.317C3691.5,7342.9,3691.506,7342.081,3691.506,7341.261Zm.106-4.335a.849.849,0,1,0-.854.856A.851.851,0,0,0,3691.612,7336.926Z" transform="translate(-3687.457 -7334.393)" fill="#fff"/>
  </g>
</svg>
