<svg xmlns="http://www.w3.org/2000/svg" width="45" height="45" viewBox="0 0 45 45">
  <g id="Group_9522" data-name="Group 9522" transform="translate(-650 -3480)">
    <rect id="Rectangle_1752" data-name="Rectangle 1752" width="45" height="45" rx="10" transform="translate(650 3480)" fill="#fcf5d7"/>
    <g id="Layer_2" data-name="Layer 2" transform="translate(663 3493)">
      <g id="invisible_box" data-name="invisible box">
        <rect id="Rectangle_41" data-name="Rectangle 41" width="19" height="19" fill="none"/>
      </g>
      <g id="icons_Q2" data-name="icons Q2" transform="translate(2.761 0.789)">
        <path id="Path_2645" data-name="Path 2645" d="M13.7,2A6.793,6.793,0,0,0,7,9.1c0,3.9,4.535,8.4,6.152,10.017a.749.749,0,0,0,1.1,0C15.874,17.5,20.409,13.082,20.409,9.1S17.609,2,13.7,2Zm0,8.676a2.761,2.761,0,1,1,2.761-2.761A2.761,2.761,0,0,1,13.7,10.676Z" transform="translate(-7 -2)" fill="#e0aa32"/>
      </g>
    </g>
  </g>
</svg>
