<svg xmlns="http://www.w3.org/2000/svg" xmlns:xlink="http://www.w3.org/1999/xlink" width="226.548" height="38.149" viewBox="0 0 226.548 38.149">
  <defs>
    <clipPath id="clip-path">
      <rect id="Rectangle_1711" data-name="Rectangle 1711" width="164.709" height="32.497" fill="#052850"/>
    </clipPath>
    <clipPath id="clip-path-2">
      <rect id="Rectangle_1706" data-name="Rectangle 1706" width="164.709" height="32.498" fill="#052850"/>
    </clipPath>
    <clipPath id="clip-path-3">
      <path id="Path_8114" data-name="Path 8114" d="M0,27.709H0Z" transform="translate(0 -27.709)" fill="#052850"/>
    </clipPath>
    <linearGradient id="linear-gradient" x1="1" y1="0.5" x2="0" y2="0.5" gradientUnits="objectBoundingBox">
      <stop offset="0" stop-color="#ffe762"/>
      <stop offset="1" stop-color="#ae7a1b"/>
    </linearGradient>
    <linearGradient id="linear-gradient-2" x1="0.644" y1="0.5" x2="0.531" y2="0.151" gradientUnits="objectBoundingBox">
      <stop offset="0" stop-color="#fcba29"/>
      <stop offset="1" stop-color="#ffbc29" stop-opacity="0"/>
    </linearGradient>
    <linearGradient id="linear-gradient-3" x1="0.366" y1="0.036" x2="0.515" y2="0.777" gradientUnits="objectBoundingBox">
      <stop offset="0" stop-color="#ae7a1b"/>
      <stop offset="0.286" stop-color="#ffd22d"/>
      <stop offset="0.468" stop-color="#c69921"/>
      <stop offset="0.68" stop-color="#ffe762"/>
      <stop offset="0.868" stop-color="#f5d956" stop-opacity="0"/>
      <stop offset="1" stop-color="#ffbc29" stop-opacity="0"/>
    </linearGradient>
    <radialGradient id="radial-gradient" cx="0.588" cy="0.544" r="0.5" gradientUnits="objectBoundingBox">
      <stop offset="0" stop-color="#ffbc29"/>
      <stop offset="0.354" stop-color="#ae7a1b"/>
      <stop offset="0.646" stop-color="#ffe762"/>
      <stop offset="1" stop-color="#cc9220"/>
    </radialGradient>
  </defs>
  <g id="Group_9489" data-name="Group 9489" transform="translate(-251.325 -535.426)">
    <g id="Group_9440" data-name="Group 9440" transform="translate(310.627 539.077)">
      <g id="Group_9439" data-name="Group 9439" clip-path="url(#clip-path)">
        <path id="Path_8101" data-name="Path 8101" d="M0,.45v2.9H4.53V16.666H7.588V3.349h4.53V.45Z" transform="translate(0 -0.086)" fill="#052850"/>
        <g id="Group_9430" data-name="Group 9430" transform="translate(0 0)">
          <g id="Group_9429" data-name="Group 9429" clip-path="url(#clip-path-2)">
            <path id="Path_8102" data-name="Path 8102" d="M17.22.449h2.967V5l-.181,2.016h.181a3.686,3.686,0,0,1,1.37-1.3,3.977,3.977,0,0,1,2-.51,3.861,3.861,0,0,1,3.182,1.268,5.339,5.339,0,0,1,1.031,3.465v6.728H24.808V10.3a2.53,2.53,0,0,0-.544-1.755,1.946,1.946,0,0,0-1.518-.6,2.223,2.223,0,0,0-1.087.26,2.426,2.426,0,0,0-.8.713,3.327,3.327,0,0,0-.5,1.053,4.681,4.681,0,0,0-.17,1.28v5.413H17.22Z" transform="translate(-3.29 -0.086)" fill="#052850"/>
            <path id="Path_8103" data-name="Path 8103" d="M43.652,15.117a6.216,6.216,0,0,1-2.072,2.2,5.753,5.753,0,0,1-3.182.839,6.113,6.113,0,0,1-2.344-.442,5.586,5.586,0,0,1-3.1-3.1,6.169,6.169,0,0,1-.442-2.366,6.067,6.067,0,0,1,.43-2.277A5.744,5.744,0,0,1,35.962,6.8a5.587,5.587,0,0,1,2.322-.476,6.032,6.032,0,0,1,2.378.442,4.839,4.839,0,0,1,1.744,1.223A5.274,5.274,0,0,1,43.47,9.839a7.149,7.149,0,0,1,.362,2.311v.272a1.5,1.5,0,0,0-.023.248,1.264,1.264,0,0,0-.023.25H35.43a3.091,3.091,0,0,0,.374,1.166,2.8,2.8,0,0,0,.7.815,2.715,2.715,0,0,0,.917.476,3.527,3.527,0,0,0,1.019.148,2.888,2.888,0,0,0,1.687-.464,3.394,3.394,0,0,0,1.053-1.167Zm-2.7-4.3a1.927,1.927,0,0,0-.193-.657,2.3,2.3,0,0,0-.5-.679,2.607,2.607,0,0,0-.815-.522,3.015,3.015,0,0,0-1.166-.2,2.722,2.722,0,0,0-1.676.544,2.868,2.868,0,0,0-1.019,1.518Z" transform="translate(-6.212 -1.209)" fill="#052850"/>
            <path id="Path_8104" data-name="Path 8104" d="M56.822,7.678h7.95a5.484,5.484,0,0,1,.113.657,6.666,6.666,0,0,1,.045.77,8.978,8.978,0,0,1-.476,2.944,6.823,6.823,0,0,1-1.495,2.47,7.509,7.509,0,0,1-2.6,1.789,8.917,8.917,0,0,1-3.465.635,8.765,8.765,0,0,1-3.33-.635,8.272,8.272,0,0,1-2.718-1.767,8.472,8.472,0,0,1-1.835-2.684,8.343,8.343,0,0,1-.679-3.386,8.342,8.342,0,0,1,.679-3.385A8.472,8.472,0,0,1,50.842,2.4,8.259,8.259,0,0,1,53.56.635a9.258,9.258,0,0,1,6.852.044,7.91,7.91,0,0,1,2.661,1.88L60.967,4.621a5.226,5.226,0,0,0-4.1-1.722,5.656,5.656,0,0,0-2.106.4,5.23,5.23,0,0,0-2.933,2.877,5.778,5.778,0,0,0-.442,2.3,5.779,5.779,0,0,0,.442,2.3,5.243,5.243,0,0,0,1.2,1.755,5.385,5.385,0,0,0,1.755,1.122,6.227,6.227,0,0,0,4.315.022,5.149,5.149,0,0,0,1.529-.962,3.7,3.7,0,0,0,.781-1.031,5.9,5.9,0,0,0,.51-1.393h-5.1Z" transform="translate(-9.235 0)" fill="#052850"/>
            <path id="Path_8105" data-name="Path 8105" d="M76.5,6.328a6.161,6.161,0,0,1,2.367.442,5.487,5.487,0,0,1,3.08,3.092,6.25,6.25,0,0,1,.442,2.377,6.26,6.26,0,0,1-.442,2.378,5.489,5.489,0,0,1-3.08,3.092,6.552,6.552,0,0,1-4.734,0,5.489,5.489,0,0,1-3.08-3.092,6.26,6.26,0,0,1-.442-2.378,6.25,6.25,0,0,1,.442-2.377,5.487,5.487,0,0,1,3.08-3.092A6.158,6.158,0,0,1,76.5,6.328m0,9.083a2.9,2.9,0,0,0,1.1-.215,2.8,2.8,0,0,0,.94-.622,2.959,2.959,0,0,0,.646-1,3.873,3.873,0,0,0,0-2.673,2.959,2.959,0,0,0-.646-1,2.812,2.812,0,0,0-.94-.622,2.9,2.9,0,0,0-1.1-.215,2.868,2.868,0,0,0-1.11.215,2.832,2.832,0,0,0-.929.622,2.959,2.959,0,0,0-.646,1,3.873,3.873,0,0,0,0,2.673,2.958,2.958,0,0,0,.646,1,2.819,2.819,0,0,0,.929.622,2.868,2.868,0,0,0,1.11.215" transform="translate(-13.493 -1.209)" fill="#052850"/>
            <rect id="Rectangle_1705" data-name="Rectangle 1705" width="2.967" height="16.216" transform="translate(70.69 0.364)" fill="#052850"/>
            <path id="Path_8106" data-name="Path 8106" d="M102.169,15.329h-.181a3.357,3.357,0,0,1-1.268,1.2,4.19,4.19,0,0,1-2.129.5,4.815,4.815,0,0,1-2.027-.442,5.382,5.382,0,0,1-1.7-1.223A5.8,5.8,0,0,1,93.7,13.5a6.4,6.4,0,0,1-.43-2.378A6.39,6.39,0,0,1,93.7,8.74,5.8,5.8,0,0,1,94.865,6.87a5.407,5.407,0,0,1,1.7-1.223A4.791,4.791,0,0,1,98.591,5.2a4.2,4.2,0,0,1,2.129.5,3.366,3.366,0,0,1,1.268,1.2h.181l-.181-1.585V.45h2.967V16.666h-2.786ZM99.2,14.288a2.955,2.955,0,0,0,1.121-.215,2.8,2.8,0,0,0,.94-.622,3.111,3.111,0,0,0,.657-1,3.41,3.41,0,0,0,.249-1.336,3.41,3.41,0,0,0-.249-1.336,3.111,3.111,0,0,0-.657-1,2.812,2.812,0,0,0-.94-.622A2.955,2.955,0,0,0,99.2,7.946a2.853,2.853,0,0,0-1.121.226,2.971,2.971,0,0,0-.94.636,3.1,3.1,0,0,0-.657.995,3.588,3.588,0,0,0,0,2.627,3.089,3.089,0,0,0,.657,1,2.982,2.982,0,0,0,.94.635,2.853,2.853,0,0,0,1.121.226" transform="translate(-17.822 -0.086)" fill="#052850"/>
            <path id="Path_8107" data-name="Path 8107" d="M121.072,15.117a6.216,6.216,0,0,1-2.072,2.2,5.753,5.753,0,0,1-3.182.839,6.113,6.113,0,0,1-2.344-.442,5.586,5.586,0,0,1-3.1-3.1,6.168,6.168,0,0,1-.442-2.366,6.067,6.067,0,0,1,.43-2.277,5.744,5.744,0,0,1,3.024-3.16,5.587,5.587,0,0,1,2.322-.476,6.032,6.032,0,0,1,2.378.442,4.839,4.839,0,0,1,1.744,1.223,5.275,5.275,0,0,1,1.065,1.845,7.15,7.15,0,0,1,.362,2.311v.272a1.5,1.5,0,0,0-.023.248,1.264,1.264,0,0,0-.023.25H112.85a3.091,3.091,0,0,0,.374,1.166,2.8,2.8,0,0,0,.7.815,2.715,2.715,0,0,0,.917.476,3.527,3.527,0,0,0,1.019.148,2.888,2.888,0,0,0,1.687-.464,3.394,3.394,0,0,0,1.053-1.167Zm-2.7-4.3a1.927,1.927,0,0,0-.193-.657,2.3,2.3,0,0,0-.5-.679,2.606,2.606,0,0,0-.815-.522,3.015,3.015,0,0,0-1.166-.2,2.722,2.722,0,0,0-1.676.544,2.868,2.868,0,0,0-1.019,1.518Z" transform="translate(-21.005 -1.209)" fill="#052850"/>
            <path id="Path_8108" data-name="Path 8108" d="M129.066,8.14h.181a3.782,3.782,0,0,1,1.4-1.326,4.116,4.116,0,0,1,2.016-.486,4.628,4.628,0,0,1,1.835.34,3.367,3.367,0,0,1,1.3.963,4.258,4.258,0,0,1,.77,1.495,6.757,6.757,0,0,1,.26,1.935v6.728h-2.967V11.425a2.56,2.56,0,0,0-.532-1.78,2.011,2.011,0,0,0-1.551-.577,2.158,2.158,0,0,0-1.076.261,2.514,2.514,0,0,0-.793.7,3.189,3.189,0,0,0-.5,1.043,4.673,4.673,0,0,0-.17,1.28v5.435H126.28V6.691h2.786Z" transform="translate(-24.13 -1.209)" fill="#052850"/>
            <path id="Path_8109" data-name="Path 8109" d="M150.314,7.678h7.95a5.48,5.48,0,0,1,.113.657,6.664,6.664,0,0,1,.045.77,8.977,8.977,0,0,1-.476,2.944,6.823,6.823,0,0,1-1.495,2.47,7.509,7.509,0,0,1-2.6,1.789,8.917,8.917,0,0,1-3.465.635,8.765,8.765,0,0,1-3.329-.635,8.272,8.272,0,0,1-2.718-1.767,8.471,8.471,0,0,1-1.835-2.684,8.343,8.343,0,0,1-.679-3.386,8.342,8.342,0,0,1,.679-3.385A8.471,8.471,0,0,1,144.334,2.4,8.259,8.259,0,0,1,147.052.635,9.258,9.258,0,0,1,153.9.679a7.911,7.911,0,0,1,2.661,1.88l-2.106,2.062a5.226,5.226,0,0,0-4.1-1.722,5.656,5.656,0,0,0-2.106.4,5.23,5.23,0,0,0-2.933,2.877,5.778,5.778,0,0,0-.442,2.3,5.779,5.779,0,0,0,.442,2.3,5.242,5.242,0,0,0,1.2,1.755,5.385,5.385,0,0,0,1.755,1.122,6.227,6.227,0,0,0,4.315.022,5.148,5.148,0,0,0,1.529-.962,3.7,3.7,0,0,0,.781-1.031,5.9,5.9,0,0,0,.51-1.393h-5.1Z" transform="translate(-27.099 0)" fill="#052850"/>
            <path id="Path_8110" data-name="Path 8110" d="M171.3,16.612h-.181a5,5,0,0,1-1.257,1.087,3.564,3.564,0,0,1-1.891.453,4.58,4.58,0,0,1-1.619-.284,4.2,4.2,0,0,1-1.325-.781,3.488,3.488,0,0,1-.883-1.2,3.7,3.7,0,0,1-.317-1.541,3.473,3.473,0,0,1,.34-1.552,3.528,3.528,0,0,1,.951-1.187,4.282,4.282,0,0,1,1.438-.76,6,6,0,0,1,1.8-.26,7.755,7.755,0,0,1,1.789.171,9.037,9.037,0,0,1,1.155.35v-.339a1.815,1.815,0,0,0-.7-1.462,2.66,2.66,0,0,0-1.744-.577,3.256,3.256,0,0,0-2.6,1.291L164.1,8.548a5.836,5.836,0,0,1,4.824-2.22,5.742,5.742,0,0,1,3.941,1.212,4.563,4.563,0,0,1,1.359,3.59v6.659H171.3Zm0-3.33a6.153,6.153,0,0,0-1.076-.395,4.661,4.661,0,0,0-1.212-.149,2.564,2.564,0,0,0-1.642.464,1.416,1.416,0,0,0-.578,1.144,1.281,1.281,0,0,0,.555,1.087,2.1,2.1,0,0,0,1.28.408,2.733,2.733,0,0,0,1.937-.781,2.527,2.527,0,0,0,.736-1.779" transform="translate(-31.304 -1.209)" fill="#052850"/>
            <path id="Path_8111" data-name="Path 8111" d="M180.364,8.51h-1.948V5.974h1.948v-3.4h2.967v3.4h2.718V8.51h-2.718v4.434a3.2,3.2,0,0,0,.079.737,1.2,1.2,0,0,0,.306.572,1.126,1.126,0,0,0,.906.373,1.939,1.939,0,0,0,.612-.079,1.983,1.983,0,0,0,.43-.215l.838,2.6a4.977,4.977,0,0,1-1.121.375,6.634,6.634,0,0,1-1.325.125,4.043,4.043,0,0,1-1.506-.267,3.174,3.174,0,0,1-1.121-.728,3.947,3.947,0,0,1-1.065-2.959Z" transform="translate(-34.092 -0.492)" fill="#052850"/>
            <path id="Path_8112" data-name="Path 8112" d="M200.76,15.117a6.216,6.216,0,0,1-2.072,2.2,5.753,5.753,0,0,1-3.182.839,6.113,6.113,0,0,1-2.344-.442,5.586,5.586,0,0,1-3.1-3.1,6.168,6.168,0,0,1-.442-2.366,6.067,6.067,0,0,1,.43-2.277A5.744,5.744,0,0,1,193.07,6.8a5.587,5.587,0,0,1,2.322-.476,6.032,6.032,0,0,1,2.378.442,4.839,4.839,0,0,1,1.744,1.223,5.275,5.275,0,0,1,1.065,1.845,7.15,7.15,0,0,1,.362,2.311v.272a1.5,1.5,0,0,0-.023.248,1.265,1.265,0,0,0-.023.25h-8.358a3.092,3.092,0,0,0,.374,1.166,2.8,2.8,0,0,0,.7.815,2.715,2.715,0,0,0,.917.476,3.527,3.527,0,0,0,1.019.148,2.888,2.888,0,0,0,1.687-.464,3.394,3.394,0,0,0,1.053-1.167Zm-2.7-4.3a1.928,1.928,0,0,0-.193-.657,2.3,2.3,0,0,0-.5-.679,2.606,2.606,0,0,0-.815-.522,3.015,3.015,0,0,0-1.166-.2,2.722,2.722,0,0,0-1.676.544,2.868,2.868,0,0,0-1.019,1.518Z" transform="translate(-36.232 -1.209)" fill="#052850"/>
          </g>
        </g>
        <g id="Group_9433" data-name="Group 9433" transform="translate(0 22.414)">
          <g id="Group_9432" data-name="Group 9432" clip-path="url(#clip-path-3)">
            <g id="Group_9431" data-name="Group 9431">
              <path id="Path_8113" data-name="Path 8113" d="M0,27.709H0Z" transform="translate(0 -27.709)" fill="#052850"/>
            </g>
          </g>
        </g>
        <g id="Group_9436" data-name="Group 9436" transform="translate(0 0)">
          <g id="Group_9435" data-name="Group 9435" clip-path="url(#clip-path-2)">
            <g id="Group_9434" data-name="Group 9434" transform="translate(0 22.414)">
              <path id="Path_8115" data-name="Path 8115" d="M0,27.709H0" transform="translate(0 -27.709)" fill="#052850"/>
            </g>
          </g>
        </g>
        <rect id="Rectangle_1708" data-name="Rectangle 1708" width="0.56" height="4.358" transform="translate(4.441 28.041)" fill="#052850"/>
        <path id="Path_8116" data-name="Path 8116" d="M21.357,34.665v2.551l.025.84h-.025l-2.119-3.39h-.682v4.358h.56V36.307l-.024-.84h.024l2.216,3.555h.585V34.665Z" transform="translate(-3.546 -6.624)" fill="#052850"/>
        <path id="Path_8117" data-name="Path 8117" d="M34.725,34.665V35.2h1.218v3.823h.56V35.2h1.218v-.535Z" transform="translate(-6.635 -6.624)" fill="#052850"/>
        <path id="Path_8118" data-name="Path 8118" d="M50.441,34.665v4.358h2.544v-.535H51V37.105h1.79v-.523H51V35.2h1.984v-.535Z" transform="translate(-9.638 -6.624)" fill="#052850"/>
        <g id="Group_9438" data-name="Group 9438" transform="translate(0 0)">
          <g id="Group_9437" data-name="Group 9437" clip-path="url(#clip-path-2)">
            <path id="Path_8119" data-name="Path 8119" d="M66.371,39.022h-.56V34.664H67.3a1.356,1.356,0,0,1,.965.374,1.252,1.252,0,0,1,.1,1.724,1.309,1.309,0,0,1-.746.447l-.012.019L68.831,39v.023h-.664l-1.175-1.766h-.621Zm0-3.823v1.534h.9a.819.819,0,0,0,.578-.221.727.727,0,0,0,.237-.552.736.736,0,0,0-.222-.532.745.745,0,0,0-.557-.229Z" transform="translate(-12.575 -6.623)" fill="#052850"/>
            <path id="Path_8120" data-name="Path 8120" d="M82.012,39.023h-.56V34.664h.682l2.119,3.391h.024l-.024-.84V34.664h.561v4.358h-.585l-2.216-3.556h-.024l.024.84Z" transform="translate(-15.564 -6.623)" fill="#052850"/>
            <path id="Path_8121" data-name="Path 8121" d="M98.15,39.022h-.62l1.644-4.358h.633l1.644,4.358h-.621l-.42-1.18H98.577Zm1.327-3.672-.712,1.966h1.449L99.5,35.351Z" transform="translate(-18.636 -6.623)" fill="#052850"/>
            <path id="Path_8122" data-name="Path 8122" d="M115.227,35.2v3.823h-.56V35.2h-1.218v-.535h3V35.2Z" transform="translate(-21.678 -6.623)" fill="#052850"/>
            <rect id="Rectangle_1709" data-name="Rectangle 1709" width="0.56" height="4.358" transform="translate(104.485 28.041)" fill="#052850"/>
            <path id="Path_8123" data-name="Path 8123" d="M146.375,36.82a2.206,2.206,0,0,1-.646,1.619,2.262,2.262,0,0,1-3.191,0,2.356,2.356,0,0,1,0-3.239,2.26,2.26,0,0,1,3.191.006,2.206,2.206,0,0,1,.646,1.615m-3.91,0a1.731,1.731,0,0,0,.475,1.249,1.6,1.6,0,0,0,1.194.492,1.58,1.58,0,0,0,1.187-.492,1.861,1.861,0,0,0,0-2.5,1.581,1.581,0,0,0-1.187-.493,1.6,1.6,0,0,0-1.194.493,1.729,1.729,0,0,0-.475,1.249" transform="translate(-27.113 -6.6)" fill="#052850"/>
            <path id="Path_8124" data-name="Path 8124" d="M160.1,39.023h-.56V34.664h.682l2.119,3.391h.024l-.024-.84V34.664h.561v4.358h-.585L160.1,35.467h-.024l.024.84Z" transform="translate(-30.486 -6.623)" fill="#052850"/>
            <path id="Path_8125" data-name="Path 8125" d="M176.243,39.022h-.62l1.644-4.358h.633l1.644,4.358h-.621l-.42-1.18H176.67Zm1.327-3.672-.712,1.966h1.449l-.713-1.966Z" transform="translate(-33.558 -6.623)" fill="#052850"/>
            <path id="Path_8126" data-name="Path 8126" d="M194.84,39.023h-2.448V34.664h.561v3.823h1.887Z" transform="translate(-36.762 -6.623)" fill="#052850"/>
          </g>
        </g>
      </g>
    </g>
    <rect id="Rectangle_1712" data-name="Rectangle 1712" width="164.171" height="1.046" transform="translate(313.702 560.136)" fill="url(#linear-gradient)"/>
    <g id="Group_9447" data-name="Group 9447" transform="translate(251.325 535.426)">
      <rect id="Rectangle_1704" data-name="Rectangle 1704" width="55.75" height="38.148" transform="translate(0 0)" fill="none"/>
      <path id="Path_8096" data-name="Path 8096" d="M54.232,25.318c.561-.121,1.416-.085,1.543.517a12.2,12.2,0,0,1-2.293,6.707c.116-.021.234-.04.352-.056a9.485,9.485,0,0,1,1.267-.134,7.961,7.961,0,0,1,3.55,1.107c.379.2.586.545.96.753a16.522,16.522,0,0,0,.9-1.925c.72-2.023,1.38-4.056,2-6.112.16-.527.319-1.054.457-1.587.064-.249.146-.486.214-.734a6.157,6.157,0,0,0,.251-.82,4,4,0,0,0-.8.209l-1.446.377c-1.246.324-2.52.544-3.766.868l-2.847.741-.344.09" transform="translate(-14.133 -6.086)" fill="url(#linear-gradient-2)"/>
      <g id="Group_9427" data-name="Group 9427" transform="translate(9.811)">
        <path id="Path_8097" data-name="Path 8097" d="M43.7,8.166c.3.279.572.572.84.869l1.29-.33A16.427,16.427,0,0,0,44.509,7.3,16.892,16.892,0,0,0,16.177,21.536l1.162-.3A15.7,15.7,0,0,1,43.7,8.166" transform="translate(-14.057 -0.722)" fill="url(#linear-gradient-3)"/>
        <path id="Path_8098" data-name="Path 8098" d="M43.41,9.928c.077.072.146.149.22.223l.75-.192c-.167-.177-.327-.357-.508-.525A14.931,14.931,0,0,0,18.8,21.747l.664-.171A14.254,14.254,0,0,1,43.41,9.928" transform="translate(-14.761 -1.426)" fill="url(#linear-gradient-3)"/>
        <path id="Path_8099" data-name="Path 8099" d="M42.461,11.3l.455-.116a13.044,13.044,0,0,0-21.6,10.768l.37-.095A12.662,12.662,0,0,1,42.461,11.3" transform="translate(-15.435 -2.102)" fill="url(#linear-gradient-3)"/>
        <path id="Path_8100" data-name="Path 8100" d="M44.032,6.313a16.9,16.9,0,0,1,1.46,1.569l1.76-.45a18.671,18.671,0,0,0-2.09-2.326A18.905,18.905,0,0,0,13.489,21.317L15.1,20.9A17.251,17.251,0,0,1,44.032,6.313" transform="translate(-13.334 0)" fill="url(#linear-gradient-3)"/>
      </g>
      <path id="Path_8095" data-name="Path 8095" d="M55.452,12.383.685,26.333C.427,26.4,0,26.662,0,26.928s.453.476.722.525a23.915,23.915,0,0,1,9.7,4.169c1.275.973,2.527,1.976,3.744,3.021.925.8,1.775,1.665,2.685,2.474a17.428,17.428,0,0,0,5.884,3.246,18.9,18.9,0,0,0,5.65,1.052,17.838,17.838,0,0,0,6.859-1.19,21.789,21.789,0,0,0,5.173-2.888c5.527-4.773,6.274-8.328,7.205-12.257l-6.675,1.7a13.276,13.276,0,0,1-8.606,7.894A12.73,12.73,0,0,1,17.9,29.115c-.274-.9,1.658-1.217,1.658-1.217l29.748-7.679-.282-1.1-4.952,1.265a.1.1,0,0,1-.119-.064l-.062-.282a.1.1,0,0,1,.07-.134l7.62-2.007-.264-1.042L39.268,19.948a.085.085,0,0,1-.105-.07l-.068-.3a.085.085,0,0,1,.063-.095l14.5-3.72-.285-1.126-23.05,6.008a.15.15,0,0,1-.186-.124l-.026-.187a.149.149,0,0,1,.11-.166L55.75,13.545Z" transform="translate(0 -3.272)" fill="url(#radial-gradient)"/>
    </g>
  </g>
</svg>
