<svg xmlns="http://www.w3.org/2000/svg" xmlns:xlink="http://www.w3.org/1999/xlink" width="56" height="56" viewBox="0 0 56 56">
  <defs>
    <filter id="Rectangle_1773" x="0" y="0" width="56" height="56" filterUnits="userSpaceOnUse">
      <feOffset dy="3" input="SourceAlpha"/>
      <feGaussianBlur stdDeviation="1.5" result="blur"/>
      <feFlood flood-opacity="0.161"/>
      <feComposite operator="in" in2="blur"/>
      <feComposite in="SourceGraphic"/>
    </filter>
    <clipPath id="clip-path">
      <rect id="Rectangle_1777" data-name="Rectangle 1777" width="42" height="42" rx="21" transform="translate(0.461 -0.136)" fill="#fff"/>
    </clipPath>
    <clipPath id="clip-path-2">
      <rect id="Rectangle_1765" data-name="Rectangle 1765" width="42.268" height="52.631" fill="none"/>
    </clipPath>
  </defs>
  <g id="ne" transform="translate(3.5 1.097)">
    <g transform="matrix(1, 0, 0, 1, -3.5, -1.1)" filter="url(#Rectangle_1773)">
      <rect id="Rectangle_1773-2" data-name="Rectangle 1773" width="47" height="47" rx="23.5" transform="translate(4.5 1.5)" fill="#fff"/>
    </g>
    <g id="Mask_Group_20" data-name="Mask Group 20" transform="translate(2.539 2.539)" clip-path="url(#clip-path)">
      <g id="NEPAL" transform="translate(-1.637 -8.614)">
        <g id="Group_9549" data-name="Group 9549" transform="translate(0 0)">
          <g id="Group_9548" data-name="Group 9548">
            <g id="Group_9547" data-name="Group 9547" clip-path="url(#clip-path-2)">
              <path id="Path_8869" data-name="Path 8869" d="M530.292,647.372l32.908,20.6H537.842l26.42,26.415h-33.97Zm-1.989-3.609v52.63H569.07l-26.415-26.425H570.14Z" transform="translate(-528.302 -643.761)" fill="#22368f"/>
              <path id="Path_8870" data-name="Path 8870" d="M528.674,644.434v49.827h37.36l-26.41-26.426h26.41Z" transform="translate(-527.676 -642.628)" fill="#bc0030"/>
              <g id="Group_9546" data-name="Group 9546">
                <g id="Group_9545" data-name="Group 9545" clip-path="url(#clip-path-2)">
                  <path id="Path_8871" data-name="Path 8871" d="M536.818,658.1a7.444,7.444,0,0,0,7.445-7.434,8.125,8.125,0,0,1-3.338,3.937l-.634-.484,1.247-.943-1.51-.379h0l.793-1.344-1.551.21.229-1.543-1.349.8h0l-.384-1.513-.946,1.25-.933-1.25-.384,1.513h0l-1.349-.8.22,1.543-1.548-.21.8,1.344h0l-1.516.379,1.258.943-.645.484a8.1,8.1,0,0,1-3.338-3.937,7.449,7.449,0,0,0,7.437,7.434" transform="translate(-526.483 -634.229)" fill="#fff"/>
                  <path id="Path_8872" data-name="Path 8872" d="M542.074,664.384h0l3.087-1.312-3.087-1.312h0l2.021-2.688-3.339.42.409-3.339-2.682,2.026h0l-1.318-3.1-1.307,3.1h0l-2.688-2.026.41,3.339-3.333-.42,2.026,2.688h0l-3.1,1.312,3.1,1.312h0l-2.026,2.688,3.333-.41h0l-.41,3.339,2.688-2.037h0l1.307,3.108,1.318-3.108h0L541.165,670l-.409-3.339,3.339.41Z" transform="translate(-526.829 -624.657)" fill="#fff"/>
                </g>
              </g>
            </g>
          </g>
        </g>
      </g>
    </g>
  </g>
</svg>
