<svg xmlns="http://www.w3.org/2000/svg" width="16.105" height="16.105" viewBox="0 0 16.105 16.105">
  <path id="Phone" d="M150.82,146.668a1.894,1.894,0,0,1,1.892-1.9h2.54a1.887,1.887,0,0,1,1.879,1.674,9.207,9.207,0,0,0,.344,1.657,1.89,1.89,0,0,1-.467,1.894l-1.029,1.029a11.871,11.871,0,0,0,4.692,4.693l1.029-1.029a1.89,1.89,0,0,1,1.894-.467,9.23,9.23,0,0,0,1.658.344,1.886,1.886,0,0,1,1.673,1.879v2.54a1.893,1.893,0,0,1-2.07,1.884,15.523,15.523,0,0,1-14.026-14.026c-.005-.058-.008-.116-.008-.174Zm5.48,1.994" transform="translate(-150.82 -144.771)" fill="#062951"/>
</svg>
