<svg xmlns="http://www.w3.org/2000/svg" width="45" height="45" viewBox="0 0 45 45">
  <g id="Group_9522" data-name="Group 9522" transform="translate(-650 -3480)">
    <rect id="Rectangle_1752" data-name="Rectangle 1752" width="45" height="45" rx="10" transform="translate(650 3480)" fill="#fcf5d7"/>
    <path id="Path_8135" data-name="Path 8135" d="M150.82,146.539a1.766,1.766,0,0,1,1.763-1.768h2.368a1.759,1.759,0,0,1,1.752,1.56,8.581,8.581,0,0,0,.32,1.544,1.762,1.762,0,0,1-.435,1.766l-.959.959A11.065,11.065,0,0,0,160,154.974l.959-.959a1.762,1.762,0,0,1,1.766-.435,8.6,8.6,0,0,0,1.545.32,1.758,1.758,0,0,1,1.559,1.752v2.367a1.764,1.764,0,0,1-1.93,1.756A14.469,14.469,0,0,1,150.828,146.7c0-.054-.008-.108-.008-.162Zm5.108,1.858" transform="translate(514.174 3350.224)" fill="#e0aa32"/>
  </g>
</svg>
