<svg xmlns="http://www.w3.org/2000/svg" width="10.839" height="10.839" viewBox="0 0 10.839 10.839">
  <path id="Phone" d="M150.82,146.048a1.275,1.275,0,0,1,1.273-1.277h1.71a1.27,1.27,0,0,1,1.265,1.126,6.2,6.2,0,0,0,.231,1.115,1.272,1.272,0,0,1-.314,1.275l-.693.693a7.99,7.99,0,0,0,3.158,3.158l.693-.693a1.272,1.272,0,0,1,1.275-.314,6.21,6.21,0,0,0,1.116.231,1.269,1.269,0,0,1,1.126,1.265v1.709a1.274,1.274,0,0,1-1.393,1.268,10.448,10.448,0,0,1-9.44-9.44c0-.039-.005-.078-.005-.117Zm3.688,1.342" transform="translate(-150.82 -144.771)" fill="#fff"/>
</svg>
