<svg xmlns="http://www.w3.org/2000/svg" xmlns:xlink="http://www.w3.org/1999/xlink" width="56" height="57" viewBox="0 0 56 57">
  <defs>
    <filter id="Rectangle_1781" x="0" y="0" width="56" height="57" filterUnits="userSpaceOnUse">
      <feOffset dy="3" input="SourceAlpha"/>
      <feGaussianBlur stdDeviation="1.5" result="blur"/>
      <feFlood flood-opacity="0.161"/>
      <feComposite operator="in" in2="blur"/>
      <feComposite in="SourceGraphic"/>
    </filter>
    <clipPath id="clip-path">
      <rect id="Rectangle_1772" data-name="Rectangle 1772" width="42" height="42" rx="21" transform="translate(0.461 0.262)" fill="#fff"/>
    </clipPath>
    <clipPath id="clip-path-2">
      <rect id="Rectangle_1756" data-name="Rectangle 1756" width="72.56" height="42.324" fill="none"/>
    </clipPath>
  </defs>
  <g id="uk" transform="translate(3.5 1.698)">
    <g transform="matrix(1, 0, 0, 1, -3.5, -1.7)" filter="url(#Rectangle_1781)">
      <rect id="Rectangle_1781-2" data-name="Rectangle 1781" width="47" height="48" rx="23.5" transform="translate(4.5 1.5)" fill="#fff"/>
    </g>
    <g id="Mask_Group_16" data-name="Mask Group 16" transform="translate(2.539 2.539)" clip-path="url(#clip-path)">
      <g id="UNITED_KINGDOM" data-name="UNITED KINGDOM" transform="translate(-15.118 0)">
        <g id="Group_9536" data-name="Group 9536" transform="translate(0 0)">
          <g id="Group_9535" data-name="Group 9535">
            <g id="Group_9534" data-name="Group 9534" clip-path="url(#clip-path-2)">
              <rect id="Rectangle_1755" data-name="Rectangle 1755" width="72.56" height="42.324" fill="#fff"/>
              <path id="Path_8841" data-name="Path 8841" d="M381.426,271.408,405.4,257.987v-1.881h-1.653l-27.337,15.3Z" transform="translate(-332.842 -256.105)" fill="#bd0034"/>
              <path id="Path_8842" data-name="Path 8842" d="M378.208,269l25.107,14.05V280.24L383.224,269Z" transform="translate(-330.755 -241.126)" fill="#bd0034"/>
              <path id="Path_8843" data-name="Path 8843" d="M356.259,259.106l21.478,12.081h5.018l-26.5-14.891Z" transform="translate(-356.259 -255.884)" fill="#bd0034"/>
              <path id="Path_8844" data-name="Path 8844" d="M381.617,269l-25.358,14.209v.245h4.581L386.638,269Z" transform="translate(-356.259 -241.126)" fill="#bd0034"/>
              <path id="Path_8845" data-name="Path 8845" d="M401.178,256.105h-25.4v14.228Z" transform="translate(-333.584 -256.105)" fill="#1a237b"/>
              <path id="Path_8846" data-name="Path 8846" d="M384.184,256.105h-25.3l25.3,14.228Z" transform="translate(-353.212 -256.105)" fill="#1a237b"/>
              <path id="Path_8847" data-name="Path 8847" d="M399.084,268.4v-9.71L381.85,268.4Z" transform="translate(-326.524 -253.1)" fill="#1a237b"/>
              <path id="Path_8848" data-name="Path 8848" d="M399.084,278.6V269H381.85Z" transform="translate(-326.524 -241.126)" fill="#1a237b"/>
              <path id="Path_8849" data-name="Path 8849" d="M359.545,282.871h23.868V269.5Z" transform="translate(-352.441 -240.546)" fill="#1a237b"/>
              <path id="Path_8850" data-name="Path 8850" d="M375.773,282.871h23.944L375.773,269.5Z" transform="translate(-333.584 -240.546)" fill="#1a237b"/>
              <path id="Path_8851" data-name="Path 8851" d="M356.259,269v10.039L374.093,269Z" transform="translate(-356.259 -241.126)" fill="#1a237b"/>
              <path id="Path_8852" data-name="Path 8852" d="M356.259,268.587h17.834l-17.834-10.054Z" transform="translate(-356.259 -253.285)" fill="#1a237b"/>
              <path id="Path_8853" data-name="Path 8853" d="M389.475,256.105v17.817H356.259v7.546h33.216V298.43H396.2V281.468h32.615v-7.546H396.2V256.105Z" transform="translate(-356.259 -256.105)" fill="#bd0034"/>
            </g>
          </g>
        </g>
      </g>
    </g>
  </g>
</svg>
