<svg xmlns="http://www.w3.org/2000/svg" xmlns:xlink="http://www.w3.org/1999/xlink" width="79.423" height="79.463" viewBox="0 0 79.423 79.463">
  <defs>
    <filter id="Path_8876" x="0" y="0" width="79.423" height="79.463" filterUnits="userSpaceOnUse">
      <feOffset dy="2" input="SourceAlpha"/>
      <feGaussianBlur stdDeviation="5" result="blur"/>
      <feFlood flood-opacity="0.302"/>
      <feComposite operator="in" in2="blur"/>
      <feComposite in="SourceGraphic"/>
    </filter>
  </defs>
  <g id="wa" transform="translate(15 13)">
    <g transform="matrix(1, 0, 0, 1, -15, -13)" filter="url(#Path_8876)">
      <path id="Path_8876-2" data-name="Path 8876" d="M130.373,688.935c.33-1.2.622-2.269.923-3.339.786-2.795,1.589-5.585,2.347-8.387a1.6,1.6,0,0,0-.117-1.085,23.973,23.973,0,0,1-3.046-10.8,24.278,24.278,0,0,1,6.184-17.483,24.587,24.587,0,0,1,30.7-5.083,24.661,24.661,0,0,1,3.56,40.333,23.876,23.876,0,0,1-11.905,5.418A24.608,24.608,0,0,1,143.58,686a1.585,1.585,0,0,0-1.019-.119c-3.813.951-7.618,1.935-11.426,2.907C130.925,688.838,130.709,688.869,130.373,688.935Z" transform="translate(-115.37 -626.47)" fill="#25d366"/>
    </g>
    <path id="Path_8874" data-name="Path 8874" d="M130.373,688.935c.33-1.2.622-2.269.923-3.339.786-2.795,1.589-5.585,2.347-8.387a1.6,1.6,0,0,0-.117-1.085,23.973,23.973,0,0,1-3.046-10.8,24.278,24.278,0,0,1,6.184-17.483,24.587,24.587,0,0,1,30.7-5.083,24.661,24.661,0,0,1,3.56,40.333,23.876,23.876,0,0,1-11.905,5.418A24.608,24.608,0,0,1,143.58,686a1.585,1.585,0,0,0-1.019-.119c-3.813.951-7.618,1.935-11.426,2.907C130.925,688.838,130.709,688.869,130.373,688.935Zm6.213-6.034c2.265-.58,4.4-1.146,6.552-1.657a1.672,1.672,0,0,1,1.139.152,20.38,20.38,0,0,0,13.755,2.872,19.255,19.255,0,0,0,10.085-4.5,19.9,19.9,0,0,0,7.138-18.316,19.217,19.217,0,0,0-4.6-10.4,19.862,19.862,0,0,0-12.214-6.939,19.6,19.6,0,0,0-9.553.7,20.034,20.034,0,0,0-12.359,11.182,20.2,20.2,0,0,0,1.624,19.346,1.428,1.428,0,0,1,.192,1.341c-.317,1-.588,2.019-.873,3.032S136.9,681.774,136.586,682.9Z" transform="translate(-130.373 -639.472)" fill="#fff"/>
    <path id="Path_8875" data-name="Path 8875" d="M238.035,757.909a16.991,16.991,0,0,1-6.763-2.327,26.538,26.538,0,0,1-10.381-10.252,9.334,9.334,0,0,1-1.273-6.664,6.349,6.349,0,0,1,2.544-3.8,3.86,3.86,0,0,1,1.679-.4c1.462-.223,2.122.583,2.555,1.873.443,1.319,1.059,2.582,1.629,3.856a1.308,1.308,0,0,1-.258,1.569c-.541.591-1.044,1.218-1.578,1.815a.823.823,0,0,0-.136,1.062,16.342,16.342,0,0,0,8.556,7.293.793.793,0,0,0,1.016-.319c.578-.769,1.185-1.517,1.761-2.288a1.1,1.1,0,0,1,1.5-.37q2.46,1.141,4.927,2.266a1.134,1.134,0,0,1,.692,1.38C243.991,756.371,241.15,757.9,238.035,757.909Z" transform="translate(-207.194 -721.371)" fill="#fff"/>
  </g>
</svg>
