<svg xmlns="http://www.w3.org/2000/svg" width="45" height="45" viewBox="0 0 45 45">
  <g id="Group_9522" data-name="Group 9522" transform="translate(-650 -3480)">
    <rect id="Rectangle_1752" data-name="Rectangle 1752" width="45" height="45" rx="10" transform="translate(650 3480)" fill="#fcf5d7"/>
    <g id="Group_9621" data-name="Group 9621" transform="translate(663.707 3493.973)">
      <path id="Path_8874" data-name="Path 8874" d="M130.373,656.654c.115-.415.216-.788.321-1.16.273-.971.552-1.94.815-2.914a.556.556,0,0,0-.041-.377,8.328,8.328,0,0,1-1.058-3.753,8.433,8.433,0,0,1,2.148-6.073,8.541,8.541,0,0,1,10.663-1.766,8.566,8.566,0,0,1,1.237,14.011,8.294,8.294,0,0,1-4.136,1.882,8.548,8.548,0,0,1-5.362-.872.551.551,0,0,0-.354-.041c-1.325.33-2.646.672-3.969,1.01C130.565,656.621,130.49,656.631,130.373,656.654Zm2.158-2.1c.787-.2,1.529-.4,2.276-.576a.581.581,0,0,1,.4.053,7.08,7.08,0,0,0,4.778,1,6.688,6.688,0,0,0,3.5-1.562,6.912,6.912,0,0,0,2.479-6.362,6.675,6.675,0,0,0-1.6-3.612,6.9,6.9,0,0,0-4.243-2.41,6.809,6.809,0,0,0-3.319.244,6.959,6.959,0,0,0-4.293,3.884,7.019,7.019,0,0,0,.564,6.72.5.5,0,0,1,.067.466c-.11.348-.2.7-.3,1.053S132.64,654.167,132.531,654.558Z" transform="translate(-130.373 -639.472)" fill="#e0aa32"/>
      <path id="Path_8875" data-name="Path 8875" d="M225.9,742.586a5.9,5.9,0,0,1-2.349-.808,9.219,9.219,0,0,1-3.606-3.561,3.242,3.242,0,0,1-.442-2.315,2.205,2.205,0,0,1,.884-1.319,1.34,1.34,0,0,1,.583-.139c.508-.078.737.2.888.651s.368.9.566,1.339a.454.454,0,0,1-.089.545c-.188.205-.363.423-.548.631a.286.286,0,0,0-.047.369,5.677,5.677,0,0,0,2.972,2.533.276.276,0,0,0,.353-.111c.2-.267.411-.527.612-.795a.381.381,0,0,1,.522-.129q.855.4,1.712.787a.394.394,0,0,1,.24.479A2.076,2.076,0,0,1,225.9,742.586Z" transform="translate(-215.188 -729.894)" fill="#e0aa32"/>
    </g>
  </g>
</svg>
