<svg xmlns="http://www.w3.org/2000/svg" width="31" height="31" viewBox="0 0 31 31">
  <g id="Group_9914" data-name="Group 9914" transform="translate(8774 -5699)">
    <rect id="Rectangle_1932" data-name="Rectangle 1932" width="31" height="31" rx="5" transform="translate(-8774 5699)" fill="#fff"/>
    <g id="Layer_2" data-name="Layer 2" transform="translate(-8768 5705.41)">
      <g id="invisible_box" data-name="invisible box" transform="translate(0 -0.777)">
        <rect id="Rectangle_1933" data-name="Rectangle 1933" width="19" height="19" transform="translate(0 0.368)" fill="none"/>
      </g>
      <g id="icons_Q2" data-name="icons Q2" transform="translate(0.777 2.671)">
        <path id="Path_11497" data-name="Path 11497" d="M18.308,7H2.777A.777.777,0,0,0,2,7.777V19.425a.777.777,0,0,0,.777.777H18.308a.777.777,0,0,0,.777-.777V7.777A.777.777,0,0,0,18.308,7Zm-7.572,5.98a.349.349,0,0,1-.388,0l-6.8-4.426H17.531Z" transform="translate(-2 -7)" fill="#e0aa32"/>
      </g>
    </g>
  </g>
</svg>
