<svg xmlns="http://www.w3.org/2000/svg" width="120" height="120" viewBox="0 0 120 120">
  <g id="Group_9491" data-name="Group 9491" transform="translate(11812.333 -15762.667)">
    <rect id="Rectangle_1747" data-name="Rectangle 1747" width="120" height="120" rx="20" transform="translate(-11812.333 15762.667)" fill="#052850"/>
    <g id="Group_9493" data-name="Group 9493" transform="translate(-11785.333 15787.667)">
      <path id="Path_8133" data-name="Path 8133" d="M-417.159,322.163q-14.563,0-29.126,0c-2.919,0-4.287-1.382-4.3-4.328-.011-3.311-.1-6.62.961-9.838,2.561-7.773,9.567-13.445,17.715-13.637,9.951-.235,19.918-.256,29.867.03,9.494.273,17.637,8.656,18.185,18.185.11,1.919.116,3.847.076,5.769a3.617,3.617,0,0,1-3.935,3.816c-4.908.011-9.815,0-14.723,0Z" transform="translate(450.588 -252.241)" fill="#fff"/>
      <path id="Path_8134" data-name="Path 8134" d="M-356.276,131.882a16.908,16.908,0,0,1-16.805-16.907,16.9,16.9,0,0,1,16.865-16.843,16.9,16.9,0,0,1,16.809,16.9A16.914,16.914,0,0,1-356.276,131.882Z" transform="translate(389.662 -98.132)" fill="#fff"/>
    </g>
  </g>
</svg>
