<svg xmlns="http://www.w3.org/2000/svg" width="51" height="51" viewBox="0 0 51 51">
  <g id="_5" data-name="5" transform="translate(-0.374 -0.153)">
    <rect id="Rectangle_1864" data-name="Rectangle 1864" width="51" height="51" rx="25.5" transform="translate(0.374 0.153)" fill="#f7eacb"/>
    <g id="Group_9710" data-name="Group 9710" transform="translate(11.296 10.605)">
      <path id="Path_11328" data-name="Path 11328" d="M-436.3,306.138h-12.447a1.611,1.611,0,0,1-1.836-1.85,13.027,13.027,0,0,1,.411-4.2,8.317,8.317,0,0,1,7.571-5.828c4.253-.1,8.512-.109,12.764.013a8.351,8.351,0,0,1,7.771,7.771c.047.82.05,1.644.032,2.466a1.546,1.546,0,0,1-1.682,1.631c-2.1,0-4.195,0-6.292,0Z" transform="translate(450.588 -276.256)" fill="#e0aa32"/>
      <path id="Path_11329" data-name="Path 11329" d="M-365.9,112.555a7.226,7.226,0,0,1-7.182-7.225,7.222,7.222,0,0,1,7.207-7.2,7.223,7.223,0,0,1,7.183,7.223A7.229,7.229,0,0,1-365.9,112.555Z" transform="translate(380.167 -98.132)" fill="#e0aa32"/>
    </g>
    <g id="Rectangle_1865" data-name="Rectangle 1865" transform="translate(0.374 0.153)" fill="none" stroke="#fff" stroke-width="2">
      <rect width="51" height="51" rx="25.5" stroke="none"/>
      <rect x="1" y="1" width="49" height="49" rx="24.5" fill="none"/>
    </g>
  </g>
</svg>
